name analog
datacolumns 19
datarows 57
range 0.521 0.549
endheader
time	ground_force_vx	ground_force_vy	ground_force_vz	ground_force_px	ground_force_py	ground_force_pz	l_ground_force_vx	l_ground_force_vy	l_ground_force_vz	l_ground_force_px	l_ground_force_py	l_ground_force_pz	ground_torque_x	ground_torque_y	ground_torque_z	l_ground_torque_x	l_ground_torque_y	l_ground_torque_z
0.521	-0.0	-0.0	-0.0	35.95042419433594	96.85887145996094	-570.7987670898438	-55.17708206176758	-136.09078979492188	-875.3661499023438	-0.0	-0.0	-0.0	-0.0	-0.0	-0.0	218001.15625	35395.98046875	-16371.5
0.5215	-0.0	-0.0	-0.0	-12.07221508026123	124.7314453125	-620.9656982421875	-99.924560546875	-170.12860107421875	-928.6265869140624	-0.0	-0.0	-0.0	-0.0	-0.0	-0.0	229501.796875	33462.890625	-27496.37890625
0.522	-0.0	-0.0	-0.0	-48.72916793823242	155.2603759765625	-698.3447875976562	-98.85309600830078	-199.7672882080078	-1016.7534790039062	-0.0	-0.0	-0.0	-0.0	-0.0	-0.0	251329.59375	22263.736328125	-25973.474609375
0.5225	-0.0	-0.0	-0.0	-65.05362701416016	187.7910003662109	-822.8993530273438	50.795780181884766	-248.86248779296875	-1530.42626953125	-0.0	-0.0	-0.0	-0.0	-0.0	-0.0	390662.75	-40228.01953125	19579.46875
0.523	-0.0	-0.0	-0.0	45.42120742797852	262.67822265625	-1280.3836669921875	444.9476623535156	-269.2586669921875	-2655.163818359375	-0.0	-0.0	-0.0	-0.0	-0.0	-0.0	702397.625	-176710.96875	129168.4140625
0.5235	-0.0	-0.0	-0.0	418.4400939941406	304.0353088378906	-2280.016357421875	651.5668334960938	-202.96144104003903	-2101.87109375	-0.0	-0.0	-0.0	-0.0	-0.0	-0.0	555338.0625	-148088.15625	180823.875
0.524	-0.0	-0.0	-0.0	638.388671875	262.0653076171875	-1794.4765625	356.7874450683594	-204.15391540527344	-1730.1314697265625	-0.0	-0.0	-0.0	-0.0	-0.0	-0.0	452604.46875	-102797.9765625	99602.0625
0.5245	-0.0	-0.0	-0.0	380.78619384765625	241.73638916015625	-1532.8736572265625	116.29978942871094	-244.94798278808597	-1476.0050048828125	-0.0	-0.0	-0.0	-0.0	-0.0	-0.0	380211.34375	-58566.1640625	33970.66015625
0.525	-0.0	-0.0	-0.0	138.30621337890625	261.77490234375	-1367.7791748046875	-84.45857238769531	-243.6617431640625	-1196.2755126953125	-0.0	-0.0	-0.0	-0.0	-0.0	-0.0	304206.46875	-23202.841796875	-19975.9453125
0.5255	-0.0	-0.0	-0.0	-37.50946044921875	247.11306762695312	-1153.8642578125	-178.9591827392578	-216.07945251464844	-1000.272705078125	-0.0	-0.0	-0.0	-0.0	-0.0	-0.0	252714.28125	553.579833984375	-45720.42578125
0.526	-0.0	-0.0	-0.0	-128.4122314453125	201.84815979003903	-983.0736694335938	-192.3475341796875	-193.4335479736328	-890.360595703125	-0.0	-0.0	-0.0	-0.0	-0.0	-0.0	224355.5	9749.26953125	-51838.56640625
0.5265	-0.0	-0.0	-0.0	-124.61067962646484	171.47032165527344	-880.0718383789062	-184.08192443847656	-180.05567932128906	-863.008544921875	-0.0	-0.0	-0.0	-0.0	-0.0	-0.0	217420.703125	11139.2216796875	-50712.40625
0.527	-0.0	-0.0	-0.0	-104.09284210205078	149.28863525390625	-810.882080078125	-144.71942138671875	-170.27540588378906	-877.7821044921875	-0.0	-0.0	-0.0	-0.0	-0.0	-0.0	222855.03125	5752.505859375	-41182.28125
0.5275	-0.0	-0.0	-0.0	-67.93910217285156	142.900146484375	-768.0611572265625	-89.92255401611328	-166.41708374023438	-930.1926879882812	-0.0	-0.0	-0.0	-0.0	-0.0	-0.0	239336.78125	-4279.490234375	-26927.814453125
0.528	-0.0	-0.0	-0.0	-48.14027786254883	139.33328247070312	-744.3173217773438	-35.9471435546875	-168.11593627929688	-1015.6441040039062	-0.0	-0.0	-0.0	-0.0	-0.0	-0.0	263818.25	-16819.44921875	-12503.9453125
0.5285	-0.0	-0.0	-0.0	-57.40119171142578	139.49134826660156	-744.3278198242188	10.32676887512207	-166.50347900390625	-1081.343017578125	-0.0	-0.0	-0.0	-0.0	-0.0	-0.0	282764.0625	-27590.41015625	139.91258239746094
0.529	-0.0	-0.0	-0.0	-81.16964721679688	143.94601440429688	-761.1044921875	30.670122146606445	-162.30938720703125	-1101.306640625	-0.0	-0.0	-0.0	-0.0	-0.0	-0.0	289340.9375	-32361.091796875	5490.37841796875
0.5295	-0.0	-0.0	-0.0	-89.39085388183594	144.10122680664062	-766.753662109375	20.172128677368164	-160.3665008544922	-1081.3990478515625	-0.0	-0.0	-0.0	-0.0	-0.0	-0.0	284810.59375	-31533.466796875	2136.37158203125
0.53	-0.0	-0.0	-0.0	-78.28213500976562	140.86965942382812	-757.6580810546875	-6.861149787902832	-158.4679718017578	-1036.356689453125	-0.0	-0.0	-0.0	-0.0	-0.0	-0.0	272789.8125	-26597.576171875	-5616.75048828125
0.5305	-0.0	-0.0	-0.0	-59.79330062866211	137.34994506835938	-740.8829956054688	-28.923044204711918	-156.87982177734375	-995.3370971679688	-0.0	-0.0	-0.0	-0.0	-0.0	-0.0	262161.125	-21924.44140625	-11770.9375
0.531	-0.0	-0.0	-0.0	-47.6381721496582	135.8793487548828	-723.1361694335938	-35.19596099853516	-157.7864227294922	-970.0291748046876	-0.0	-0.0	-0.0	-0.0	-0.0	-0.0	255592.34375	-20140.51953125	-13094.9296875
0.5315	-0.0	-0.0	-0.0	-47.28022384643555	134.698486328125	-712.541015625	-25.880756378173828	-161.5626220703125	-965.0550537109376	-0.0	-0.0	-0.0	-0.0	-0.0	-0.0	253652.59375	-20950.142578125	-9789.021484375
0.532	-0.0	-0.0	-0.0	-52.27439880371094	134.09576416015625	-701.9473266601562	-11.355460166931152	-164.54330444335938	-969.3316650390624	-0.0	-0.0	-0.0	-0.0	-0.0	-0.0	255487.203125	-23417.822265625	-5085.486328125
0.5325	-0.0	-0.0	-0.0	-58.16164016723633	134.3411407470703	-692.1448974609375	0.4652706086635589	-165.6029510498047	-977.1004028320312	-0.0	-0.0	-0.0	-0.0	-0.0	-0.0	257383.296875	-25466.83203125	-1488.2138671875
0.533	-0.0	-0.0	-0.0	-62.55690383911133	134.8082275390625	-685.7877807617188	5.101016998291016	-164.45469665527344	-978.9364624023438	-0.0	-0.0	-0.0	-0.0	-0.0	-0.0	258212.609375	-26940.87890625	-75.10082244873047
0.5335	-0.0	-0.0	-0.0	-65.4561538696289	135.87742614746094	-679.8773193359375	2.440643787384033	-161.25430297851562	-970.3809204101562	-0.0	-0.0	-0.0	-0.0	-0.0	-0.0	256627.5625	-27017.6875	-1024.9283447265625
0.534	-0.0	-0.0	-0.0	-65.47962188720703	138.35154724121094	-673.696044921875	-3.722934007644653	-156.19834899902344	-954.9342041015624	-0.0	-0.0	-0.0	-0.0	-0.0	-0.0	252920.859375	-26490.228515625	-3134.163818359375
0.5345	-0.0	-0.0	-0.0	-63.406620025634766	139.6683349609375	-667.5101318359375	-10.443807601928713	-151.03213500976562	-934.1619262695312	-0.0	-0.0	-0.0	-0.0	-0.0	-0.0	247818.796875	-25529.24609375	-5280.9189453125
0.535	-0.0	-0.0	-0.0	-58.63676071166992	139.7796173095703	-662.299560546875	-13.239046096801758	-147.23309326171875	-912.1668090820312	-0.0	-0.0	-0.0	-0.0	-0.0	-0.0	241833.75	-24540.455078125	-6298.30078125
0.5355	-0.0	-0.0	-0.0	-53.530181884765625	138.61973571777344	-657.7081298828125	-13.86081600189209	-144.2074737548828	-888.9514770507812	-0.0	-0.0	-0.0	-0.0	-0.0	-0.0	235592.5	-23810.181640625	-6305.27197265625
0.536	-0.0	-0.0	-0.0	-47.37506103515625	136.48342895507812	-658.4142456054688	-13.750171661376951	-142.4421844482422	-865.5599975585938	-0.0	-0.0	-0.0	-0.0	-0.0	-0.0	229339.859375	-23271.455078125	-6112.0703125
0.5365	-0.0	-0.0	-0.0	-39.61717224121094	133.27801513671875	-664.1578979492188	-13.171714782714844	-140.19073486328125	-841.4747314453125	-0.0	-0.0	-0.0	-0.0	-0.0	-0.0	222993.0	-22867.083984375	-5821.74072265625
0.537	-0.0	-0.0	-0.0	-27.806785583496094	128.356201171875	-674.9134521484375	-13.370755195617676	-136.3700408935547	-815.7256469726562	-0.0	-0.0	-0.0	-0.0	-0.0	-0.0	216146.984375	-21954.748046875	-5791.66943359375
0.5375	-0.0	-0.0	-0.0	-9.946202278137209	120.9791030883789	-688.9675903320312	-14.657564163208008	-132.6868896484375	-787.097412109375	-0.0	-0.0	-0.0	-0.0	-0.0	-0.0	208959.359375	-21278.001953125	-6043.0458984375
0.538	-0.0	-0.0	-0.0	10.886140823364258	111.69200134277344	-694.351806640625	-16.210683822631836	-128.18289184570312	-756.4656372070312	-0.0	-0.0	-0.0	-0.0	-0.0	-0.0	200387.078125	-20309.341796875	-6607.12109375
0.5385	-0.0	-0.0	-0.0	24.77041244506836	104.38002014160156	-688.0110473632812	-18.471818923950195	-122.55072784423828	-724.5242919921875	-0.0	-0.0	-0.0	-0.0	-0.0	-0.0	191387.875	-18989.4296875	-7132.79248046875
0.539	-0.0	-0.0	-0.0	25.168500900268555	99.47398376464844	-661.541259765625	-19.64848518371582	-117.4519271850586	-689.8682250976562	-0.0	-0.0	-0.0	-0.0	-0.0	-0.0	182484.90625	-17797.9296875	-7570.57861328125
0.5395	-0.0	-0.0	-0.0	12.640769004821776	97.9326171875	-623.4947509765625	-20.738658905029297	-112.92427825927734	-656.6231689453125	-0.0	-0.0	-0.0	-0.0	-0.0	-0.0	173365.125	-16293.4873046875	-7770.57861328125
0.54	-0.0	-0.0	-0.0	-3.0350282192230225	96.19831848144533	-584.6378784179688	-20.513830184936523	-108.53010559082033	-624.93017578125	-0.0	-0.0	-0.0	-0.0	-0.0	-0.0	164733.84375	-15302.9794921875	-7673.77099609375
0.5405	-0.0	-0.0	-0.0	-14.301241874694824	92.69823455810548	-547.7379150390625	-19.338951110839844	-104.11663055419922	-593.4238891601562	-0.0	-0.0	-0.0	-0.0	-0.0	-0.0	156626.53125	-14735.291015625	-7337.55322265625
0.541	-0.0	-0.0	-0.0	-22.35936737060547	88.4065933227539	-517.633544921875	-17.744544982910156	-99.41200256347656	-565.5782470703125	-0.0	-0.0	-0.0	-0.0	-0.0	-0.0	149629.3125	-14026.9189453125	-6757.9736328125
0.5415	-0.0	-0.0	-0.0	-26.67394256591797	82.9616928100586	-491.0395202636719	-14.949033737182615	-94.5521469116211	-544.2625122070312	-0.0	-0.0	-0.0	-0.0	-0.0	-0.0	142952.796875	-14006.494140625	-5953.04736328125
0.542	-0.0	-0.0	-0.0	-27.495386123657227	78.59449005126953	-468.6320190429688	-11.846906661987305	-89.6785888671875	-521.2092895507812	-0.0	-0.0	-0.0	-0.0	-0.0	-0.0	137633.890625	-14149.1025390625	-4867.337890625
0.5425	-0.0	-0.0	-0.0	-26.69857406616211	74.89725494384766	-449.1719665527344	-7.704696178436279	-84.90682983398438	-502.7156677246094	-0.0	-0.0	-0.0	-0.0	-0.0	-0.0	132603.859375	-14402.376953125	-3707.246337890625
0.543	-0.0	-0.0	-0.0	-24.557632446289062	71.72002410888672	-435.0455017089844	-3.156545639038086	-80.7134017944336	-483.766845703125	-0.0	-0.0	-0.0	-0.0	-0.0	-0.0	127539.578125	-14522.4873046875	-2412.16845703125
0.5435	-0.0	-0.0	-0.0	-20.99271774291992	68.1915512084961	-423.81591796875	0.926858127117157	-75.39020538330078	-464.84130859375	-0.0	-0.0	-0.0	-0.0	-0.0	-0.0	122560.8125	-14692.6767578125	-1242.9014892578125
0.544	-0.0	-0.0	-0.0	-17.9918155670166	65.25404357910156	-416.6954956054688	4.098867893218994	-70.79781341552734	-445.2776794433594	-0.0	-0.0	-0.0	-0.0	-0.0	-0.0	117378.53125	-14799.0458984375	-477.5392456054688
0.5445	-0.0	-0.0	-0.0	-13.98830509185791	63.15071487426758	-409.90142822265625	6.451221466064453	-66.54069519042969	-424.5235290527344	-0.0	-0.0	-0.0	-0.0	-0.0	-0.0	111945.1484375	-14239.01953125	134.89761352539062
0.545	-0.0	-0.0	-0.0	-9.999160766601562	61.397090911865234	-400.7596740722656	8.271414756774902	-62.63041687011719	-404.9162902832031	-0.0	-0.0	-0.0	-0.0	-0.0	-0.0	106618.7890625	-13589.603515625	552.4334716796875
0.5455	-0.0	-0.0	-0.0	-5.814433574676514	59.89956665039063	-395.8459167480469	9.51332950592041	-58.50091552734375	-383.6069641113281	-0.0	-0.0	-0.0	-0.0	-0.0	-0.0	101004.546875	-12919.05859375	972.0262451171876
0.546	-0.0	-0.0	-0.0	-1.94942045211792	58.46954345703125	-384.2757873535156	9.467093467712402	-54.50187301635742	-363.5106201171875	-0.0	-0.0	-0.0	-0.0	-0.0	-0.0	95371.703125	-12084.5244140625	913.71533203125
0.5465	-0.0	-0.0	-0.0	0.8157774209976196	57.87523651123047	-374.5721740722656	9.871966361999512	-50.92321014404297	-341.05279541015625	-0.0	-0.0	-0.0	-0.0	-0.0	-0.0	89797.7578125	-10976.64453125	907.866943359375
0.547	-0.0	-0.0	-0.0	3.479209899902344	56.89505386352539	-365.2052307128906	9.711831092834473	-47.23500061035156	-321.6158752441406	-0.0	-0.0	-0.0	-0.0	-0.0	-0.0	84245.734375	-9882.6845703125	833.921630859375
0.5475	-0.0	-0.0	-0.0	4.2821044921875	55.01020050048828	-355.4005126953125	9.002093315124512	-43.92510986328125	-304.2589111328125	-0.0	-0.0	-0.0	-0.0	-0.0	-0.0	79353.671875	-8937.443359375	654.92724609375
0.548	-0.0	-0.0	-0.0	3.96757698059082	54.395263671875	-344.619873046875	8.672540664672852	-41.06124877929688	-285.20721435546875	-0.0	-0.0	-0.0	-0.0	-0.0	-0.0	74627.0390625	-7666.91845703125	426.57708740234375
0.5485	-0.0	-0.0	-0.0	3.68820595741272	52.97400665283203	-335.5396728515625	7.8276286125183105	-38.5633544921875	-270.0947265625	-0.0	-0.0	-0.0	-0.0	-0.0	-0.0	70300.59375	-6714.796875	218.9866180419922
0.549	-0.0	-0.0	-0.0	2.446064710617065	51.70044708251953	-325.9015808105469	7.211112022399902	-35.90945816040039	-254.91595458984372	-0.0	-0.0	-0.0	-0.0	-0.0	-0.0	66244.9296875	-5907.8349609375	126.2003173828125
